<?xml version="1.0" encoding="UTF-8"?>
<svg xmlns="http://www.w3.org/2000/svg" xmlns:xlink="http://www.w3.org/1999/xlink" width="18px" height="18px" viewBox="0 0 18 18" version="1.1">
<g id="surface1">
<path style="fill-rule:nonzero;fill:rgb(100%,100%,100%);fill-opacity:1;stroke-width:1.6;stroke-linecap:butt;stroke-linejoin:miter;stroke:rgb(100%,100%,100%);stroke-opacity:1;stroke-miterlimit:4;" d="M 10.048611 29.729167 C 9.784722 29.729167 9.527778 29.625 9.340278 29.4375 C 9.152778 29.25 9.041667 29 9.041667 28.729167 C 9.041667 28.465278 9.152778 28.208333 9.340278 28.020833 L 20.659722 16.708333 C 20.847222 16.520833 20.958333 16.263889 20.958333 16 C 20.958333 15.736111 20.847222 15.479167 20.659722 15.291667 L 9.340278 4 C 8.944444 3.611111 8.944444 2.972222 9.340278 2.583333 C 9.729167 2.1875 10.368056 2.1875 10.756944 2.583333 L 22.069444 13.881944 C 23.243056 15.048611 23.243056 16.951389 22.069444 18.118056 L 10.756944 29.4375 C 10.569444 29.625 10.3125 29.729167 10.048611 29.729167 Z M 10.048611 29.729167 " transform="matrix(0.5625,0,0,0.5625,0,0)"/>
</g>
</svg>
