<?xml version="1.0" encoding="UTF-8"?>
<svg xmlns="http://www.w3.org/2000/svg" xmlns:xlink="http://www.w3.org/1999/xlink" width="18px" height="18px" viewBox="0 0 18 18" version="1.1">
<g id="surface1">
<path style="fill-rule:nonzero;fill:rgb(100%,100%,100%);fill-opacity:1;stroke-width:1.6;stroke-linecap:butt;stroke-linejoin:miter;stroke:rgb(100%,100%,100%);stroke-opacity:1;stroke-miterlimit:4;" d="M 22 29.729167 C 21.736111 29.729167 21.479167 29.625 21.291667 29.4375 L 9.930556 18.118056 C 8.756944 16.951389 8.756944 15.048611 9.930556 13.881944 L 21.243056 2.5625 C 21.638889 2.166667 22.277778 2.173611 22.666667 2.569444 C 23.0625 2.965278 23.055556 3.611111 22.659722 4 L 11.340278 15.291667 C 11.152778 15.479167 11.041667 15.736111 11.041667 16 C 11.041667 16.263889 11.152778 16.520833 11.340278 16.708333 L 22.659722 28 C 22.847222 28.1875 22.958333 28.444444 22.958333 28.708333 C 22.958333 28.979167 22.847222 29.229167 22.659722 29.416667 C 22.486111 29.604167 22.25 29.715278 22 29.729167 Z M 22 29.729167 " transform="matrix(0.5625,0,0,0.5625,0,0)"/>
</g>
</svg>
